<?xml version="1.0" standalone="no"?><!DOCTYPE svg PUBLIC "-//W3C//DTD SVG 1.1//EN" "http://www.w3.org/Graphics/SVG/1.1/DTD/svg11.dtd"><svg t="1569684046451" class="icon" viewBox="0 0 1024 1024" version="1.1" xmlns="http://www.w3.org/2000/svg" p-id="2749" width="32" height="32" xmlns:xlink="http://www.w3.org/1999/xlink"><defs><style type="text/css"></style></defs><path d="M661.333333 234.666667L469.333333 42.666667v132.266666c-166.4 21.333333-298.666667 162.133333-298.666666 337.066667s132.266667 315.733333 298.666666 337.066667v-85.333334C349.866667 742.4 256 640 256 512s93.866667-230.4 213.333333-251.733333V426.666667l192-192z m187.733334 234.666666c-8.533333-59.733333-29.866667-115.2-68.266667-166.4l-59.733333 59.733334c21.333333 34.133333 38.4 68.266667 42.666666 106.666666h85.333334zM554.666667 763.733333v85.333334c59.733333-8.533333 115.2-29.866667 166.4-68.266667l-59.733334-59.733333c-34.133333 21.333333-68.266667 38.4-106.666666 42.666666z m166.4-102.4l59.733333 59.733334c38.4-51.2 64-106.666667 68.266667-166.4h-85.333334c-4.266667 38.4-21.333333 72.533333-42.666666 106.666666z" p-id="2750" fill="#ffffff"></path></svg>